<?xml version="1.0" encoding="UTF-8" standalone="no"?>
<!-- Created with Inkscape (http://www.inkscape.org/) -->

<svg
   xmlns:dc="http://purl.org/dc/elements/1.1/"
   xmlns:cc="http://creativecommons.org/ns#"
   xmlns:rdf="http://www.w3.org/1999/02/22-rdf-syntax-ns#"
   xmlns:svg="http://www.w3.org/2000/svg"
   xmlns="http://www.w3.org/2000/svg"
   xmlns:sodipodi="http://sodipodi.sourceforge.net/DTD/sodipodi-0.dtd"
   xmlns:inkscape="http://www.inkscape.org/namespaces/inkscape"
   width="210mm"
   height="210mm"
   viewBox="0 0 210 210"
   version="1.1"
   id="svg8"
   inkscape:version="0.92.4 (5da689c313, 2019-01-14)"
   sodipodi:docname="ConsumerIcon.svg">
  <defs
     id="defs2" />
  <sodipodi:namedview
     id="base"
     pagecolor="#ffffff"
     bordercolor="#666666"
     borderopacity="1.0"
     inkscape:pageopacity="0.0"
     inkscape:pageshadow="2"
     inkscape:zoom="0.7"
     inkscape:cx="834.287"
     inkscape:cy="328.28096"
     inkscape:document-units="mm"
     inkscape:current-layer="layer1"
     showgrid="false"
     inkscape:window-width="1920"
     inkscape:window-height="1017"
     inkscape:window-x="1912"
     inkscape:window-y="-8"
     inkscape:window-maximized="1" />
  <metadata
     id="metadata5">
    <rdf:RDF>
      <cc:Work
         rdf:about="">
        <dc:format>image/svg+xml</dc:format>
        <dc:type
           rdf:resource="http://purl.org/dc/dcmitype/StillImage" />
        <dc:title></dc:title>
      </cc:Work>
    </rdf:RDF>
  </metadata>
  <g
     inkscape:label="Layer 1"
     inkscape:groupmode="layer"
     id="layer1"
     transform="translate(0,-87)">
    <path
       style="fill:#ffffff;stroke-width:0.78095716;fill-opacity:1"
       d="m 118.49016,292.52513 c -0.52023,-0.33113 -1.50147,-1.93084 -2.18044,-3.5559 -0.90117,-2.15563 -2.01782,-3.27052 -4.13037,-4.12189 -8.81667,-3.55314 -11.23628,-5.16289 -13.774607,-9.16395 -1.39899,-2.20525 -6.155849,-11.10549 -10.570778,-19.77817 -8.853933,-17.39278 -9.194941,-18.97421 -4.996312,-23.17275 2.577712,-2.57771 6.235451,-3.25401 11.181862,-2.06735 5.356782,1.28507 9.531885,4.52884 12.494975,9.70788 1.37132,2.39683 2.6432,4.35783 2.82648,4.35783 0.18356,0 0.33298,-3.50333 0.33298,-7.78525 v -7.78516 l -32.995467,-0.21953 c -30.629633,-0.20385 -33.210389,-0.32653 -35.993702,-1.70836 -3.855868,-1.91451 -6.545743,-6.02625 -7.571164,-11.57332 -0.530375,-2.86771 -0.736068,-23.57142 -0.589408,-59.31958 0.245356,-59.849677 0.0369,-57.076141 4.641469,-61.265915 4.793755,-4.360416 2.39102,-4.192449 59.778644,-4.17852 l 52.948628,0.0092 3.12386,1.744333 c 2.2379,1.249654 3.73291,2.94676 5.27146,5.984376 l 2.1476,4.240056 v 57.46067 c 0,35.83304 -0.29332,58.48196 -0.7785,60.17399 -0.68902,2.40219 -0.55712,2.93422 1.14865,4.64009 1.31893,1.31893 2.91817,1.9777 5.06937,2.08829 4.21431,0.21676 7.8476,2.47321 9.99973,6.21073 1.72016,2.98744 1.7673,3.61033 1.56234,20.65186 -0.20569,17.07741 -0.26842,17.69329 -2.2427,21.90244 -1.11729,2.38198 -3.09065,5.54486 -4.38541,7.02861 -1.29476,1.48376 -3.12008,4.20841 -4.05631,6.05485 -0.93632,1.84635 -2.21438,3.5536 -2.84022,3.7937 -1.96359,0.75359 -5.07924,-0.4861 -5.76236,-2.29325 -0.87811,-2.32295 1.42777,-8.36073 4.55255,-11.91968 5.47217,-6.23241 5.87323,-7.81615 6.18509,-24.4249 0.25366,-13.51117 0.14113,-15.24434 -1.08187,-16.59528 -1.63402,-1.80557 -3.69445,-1.94375 -5.02786,-0.33667 -2.39388,2.8845 -7.80951,0.37818 -7.80951,-3.61485 0,-3.46219 -3.41395,-5.10635 -5.46673,-2.63287 -0.53499,0.64475 -2.1667,1.17144 -3.62666,1.17144 -2.77455,0 -3.52454,-0.93051 -4.52118,-5.60989 -0.71393,-3.35086 -3.46727,-3.69509 -5.93282,-0.7416 -1.47103,1.76195 -2.71044,2.44683 -4.4283,2.44683 -4.21127,0 -4.47129,-1.01122 -4.79598,-18.64991 -0.16326,-8.85651 -0.62169,-16.71769 -1.0185,-17.46934 -0.85782,-1.62341 -3.24681,-1.79193 -4.47212,-0.31546 -0.80524,0.97026 -2.40688,36.67204 -2.43308,54.23702 -0.009,5.83025 -0.20108,6.67027 -1.9266,8.39533 -1.21368,1.21377 -2.80812,1.91691 -4.34658,1.91691 -4.65521,0 -8.07276,-2.74531 -12.199252,-9.79939 -2.874999,-4.91477 -5.831537,-7.3817 -8.846831,-7.3817 -1.517148,0 -0.882728,1.55662 6.285445,15.42393 4.385138,8.48314 8.537368,16.08852 9.227128,16.90078 0.68995,0.81262 4.06553,2.7834 7.5018,4.38034 6.82901,3.17367 8.31563,4.46446 10.12259,8.78918 1.5783,3.77737 1.51623,4.95305 -0.36065,6.82993 -1.61944,1.61944 -3.60784,1.97484 -5.24121,0.93687 z m -8.70478,-70.6373 c 0.0646,-0.10699 0.32745,-7.22388 0.59033,-15.81438 0.43629,-14.20445 0.63276,-15.86678 2.17767,-18.35253 2.24261,-3.60941 5.77739,-5.59688 9.95453,-5.59688 4.2204,0 7.58786,1.69009 9.93479,4.98607 1.56373,2.19612 1.87744,3.84895 2.3367,12.31189 0.29147,5.37643 0.56081,11.09313 0.59863,12.7039 0.0646,2.89086 0.10884,2.92859 3.23039,2.92859 3.74869,0 7.02834,1.54307 9.23092,4.34317 1.92281,2.44451 4.12299,2.24454 4.87068,-0.44275 0.84306,-3.03061 0.80986,-113.61997 -0.0369,-115.84219 -0.40308,-1.06048 -1.52369,-2.66479 -2.49008,-3.565135 -1.74719,-1.627742 -2.04586,-1.636874 -53.531115,-1.636874 H 44.877876 l -2.55041,2.278669 -2.550501,2.27859 v 56.09794 c 0,61.64539 -0.09593,60.35367 4.624127,62.40885 1.874851,0.81631 9.328226,1.05374 33.838076,1.07754 17.288363,0.0184 31.483582,-0.0553 31.544732,-0.16511 z M 58.399104,200.56955 c -0.261959,-0.68165 -0.140203,-1.57425 0.269338,-1.9836 0.439058,-0.43906 7.607415,-0.65767 17.479943,-0.53315 16.144599,0.20385 16.735667,0.26658 16.735667,1.77312 0,1.50764 -0.591252,1.56917 -17.004451,1.77237 -14.933224,0.18448 -17.06247,0.0553 -17.480036,-1.02865 z m 0.512849,-6.99145 c -0.77573,-0.93522 -0.773885,-1.41062 0.0092,-2.3581 0.834763,-1.00568 3.497151,-1.15455 17.46168,-0.97616 15.415357,0.19647 16.495107,0.30531 16.759188,1.67875 0.154961,0.80801 -0.191858,1.76868 -0.771119,2.1357 -0.579261,0.36711 -8.126536,0.67242 -16.771824,0.6798 -13.029779,0.009 -15.885038,-0.18816 -16.690931,-1.15954 z m -0.291475,-11.73696 c -0.733301,-1.90981 -0.56727,-16.2171 0.201081,-17.4305 0.367111,-0.57927 1.32815,-0.92581 2.135703,-0.7702 1.339772,0.25827 1.468353,1.10253 1.468353,9.64359 0,8.94627 -0.07379,9.37121 -1.657812,9.59729 -0.977734,0.13928 -1.858709,-0.28687 -2.147602,-1.04009 z m 10.216119,0.70655 c -0.787721,-0.78772 -0.665044,-16.86978 0.137436,-18.13687 0.367111,-0.57926 1.328058,-0.9258 2.135703,-0.7702 1.33968,0.25827 1.468261,1.10254 1.468261,9.6436 0,8.82847 -0.09224,9.37379 -1.593983,9.58898 -0.877193,0.12545 -1.843213,-0.0185 -2.147694,-0.3256 z m 9.957942,-0.48426 c -0.22783,-0.59494 -0.314535,-4.92436 -0.191857,-9.62154 0.213072,-8.14231 0.303466,-8.55176 1.952608,-8.78623 2.307267,-0.32837 2.688215,1.44363 2.403565,11.17928 -0.216762,7.42893 -0.313613,7.82178 -1.988951,8.05957 -0.974413,0.13836 -1.945874,-0.23244 -2.175549,-0.83108 z m 10.131444,-0.0553 c -0.216762,-0.5645 -0.29332,-4.86533 -0.170643,-9.55744 0.199237,-7.63158 0.378181,-8.5608 1.69148,-8.81242 0.808014,-0.15497 1.768684,0.19278 2.135703,0.77204 0.759127,1.19864 0.938347,15.50999 0.217684,17.38927 -0.573727,1.49381 -3.323649,1.64213 -3.873671,0.20846 z m 10.335015,0.50547 c -0.285941,-0.28594 -0.520228,-4.51455 -0.520228,-9.39602 0,-7.20202 0.222296,-8.96084 1.181305,-9.32869 2.663585,-1.0221 3.504435,1.16738 3.504435,9.12466 0,4.20748 -0.21307,8.20595 -0.47411,8.88538 -0.4778,1.24477 -2.72566,1.68004 -3.691035,0.71486 z m 21.052732,-3.48193 c -4.78952,-1.28092 -7.10481,-6.17236 -5.15257,-10.88541 1.74332,-4.20896 7.86218,-5.98216 11.60238,-3.36248 4.0754,2.85452 4.63557,8.80745 1.15622,12.2868 -2.19529,2.19528 -4.5044,2.7906 -7.60603,1.96109 z m 4.9489,-6.09331 c 1.08971,-2.03609 0.25458,-3.87524 -2.01838,-4.44574 -3.28371,-0.82369 -5.57612,2.69965 -3.26185,5.01393 1.43294,1.43293 4.37896,1.11591 5.28023,-0.56819 z M 51.284061,132.47355 51.492522,112.3576 h 44.9051 44.905008 v 19.91441 19.91441 l -45.113469,0.202 -45.113468,0.20201 z m 85.723179,-0.202 V 116.6524 H 96.006989 55.006737 v 15.61911 15.61911 h 41.000252 41.000251 z m -71.336471,8.72425 c -1.628942,-1.79986 -1.65689,-4.34354 -0.06457,-5.93513 1.630602,-1.6306 3.703674,-1.55182 5.289909,0.20109 1.799768,1.98867 1.612062,4.50698 -0.44367,5.94665 -2.24888,1.57507 -3.201986,1.53273 -4.781395,-0.21215 z m 19.186181,0.21215 c -2.105172,-1.47454 -2.249341,-4.32509 -0.307156,-6.08234 1.908794,-1.72745 3.701921,-1.62913 5.640325,0.309 1.769421,1.76933 1.489568,4.3238 -0.658587,6.01242 -1.628204,1.27991 -2.574299,1.23148 -4.674306,-0.23982 z m 19.18775,0.23982 c -2.14806,-1.68862 -2.42792,-4.24309 -0.65859,-6.01242 1.98296,-1.98296 4.08158,-2.04605 5.77601,-0.17341 1.79986,1.98867 1.61215,4.50698 -0.44275,5.94665 -2.1,1.47094 -3.0461,1.51936 -4.6743,0.23982 z m 19.07909,-0.23982 c -2.10508,-1.47454 -2.24925,-4.32509 -0.30716,-6.08234 1.79368,-1.62322 3.57371,-1.64573 5.15423,-0.0646 1.64573,1.64573 1.55174,4.48467 -0.20108,6.07081 -1.76952,1.60145 -2.45282,1.6128 -4.64571,0.0738 z M 65.744929,129.86573 c -1.569909,-0.91409 -1.834173,-4.62422 -0.429834,-6.02893 1.208147,-1.20805 4.727251,-1.20805 5.935305,0 1.31413,1.31413 1.166455,4.18867 -0.28963,5.64522 -1.401849,1.40185 -3.23593,1.53679 -5.215657,0.38371 z m 18.603507,-0.38371 c -0.67519,-0.67519 -1.22724,-1.75236 -1.22724,-2.39425 0,-4.29474 5.137161,-5.82794 7.490916,-2.23569 1.185087,1.80853 1.185087,2.09613 0,3.90475 -1.470843,2.24483 -4.404414,2.58445 -6.263676,0.725 z m 18.615404,-0.725 c -1.18508,-1.80862 -1.18508,-2.09623 0,-3.90476 2.35376,-3.59225 7.49092,-2.05905 7.49092,2.23569 0,3.61098 -5.42633,4.81995 -7.49092,1.66907 z m 19.65153,0.725 c -1.45655,-1.45655 -1.60422,-4.33109 -0.29056,-5.64522 1.20806,-1.20805 4.72716,-1.20805 5.93531,0 1.48496,1.48496 1.1386,5.14777 -0.57373,6.06398 -2.11873,1.1339 -3.6451,1.0079 -5.07176,-0.41876 z"
       id="path4666"
       inkscape:connector-curvature="0" />
  </g>
</svg>
