<?xml version="1.0" encoding="UTF-8" standalone="no"?>
<!-- Created with Inkscape (http://www.inkscape.org/) -->

<svg
   xmlns:dc="http://purl.org/dc/elements/1.1/"
   xmlns:cc="http://creativecommons.org/ns#"
   xmlns:rdf="http://www.w3.org/1999/02/22-rdf-syntax-ns#"
   xmlns:svg="http://www.w3.org/2000/svg"
   xmlns="http://www.w3.org/2000/svg"
   xmlns:sodipodi="http://sodipodi.sourceforge.net/DTD/sodipodi-0.dtd"
   xmlns:inkscape="http://www.inkscape.org/namespaces/inkscape"
   width="210mm"
   height="210mm"
   viewBox="0 0 210 210"
   version="1.1"
   id="svg8"
   inkscape:version="0.92.4 (5da689c313, 2019-01-14)"
   sodipodi:docname="LocalIcon.svg">
  <defs
     id="defs2" />
  <sodipodi:namedview
     id="base"
     pagecolor="#ffffff"
     bordercolor="#666666"
     borderopacity="1.0"
     inkscape:pageopacity="0.0"
     inkscape:pageshadow="2"
     inkscape:zoom="0.7"
     inkscape:cx="834.287"
     inkscape:cy="547.79983"
     inkscape:document-units="mm"
     inkscape:current-layer="layer1"
     showgrid="false"
     inkscape:window-width="1920"
     inkscape:window-height="1017"
     inkscape:window-x="1912"
     inkscape:window-y="-8"
     inkscape:window-maximized="1" />
  <metadata
     id="metadata5">
    <rdf:RDF>
      <cc:Work
         rdf:about="">
        <dc:format>image/svg+xml</dc:format>
        <dc:type
           rdf:resource="http://purl.org/dc/dcmitype/StillImage" />
        <dc:title></dc:title>
      </cc:Work>
    </rdf:RDF>
  </metadata>
  <g
     inkscape:label="Layer 1"
     inkscape:groupmode="layer"
     id="layer1"
     transform="translate(0,-87)">
    <path
       style="fill:#ffffff;stroke-width:0.79862154;fill-opacity:1"
       d="m 31.597791,280.19894 c -3.680737,-4.37424 -3.086345,-5.63773 7.750802,-16.47487 8.851824,-8.85177 10.095986,-9.81832 12.638734,-9.81832 3.761923,0 6.612747,2.96398 6.612747,6.87518 0,2.56735 -0.917409,3.74717 -9.608314,12.35682 -8.678218,8.597 -9.885084,9.51837 -12.467373,9.51837 -2.212156,0 -3.326856,-0.55558 -4.926596,-2.45718 z m 148.267479,0.14149 c -1.09266,-1.90376 -2.03228,-2.4085 -5.28793,-2.84042 -2.17754,-0.28863 -5.09296,-0.9989 -6.47872,-1.57796 -3.28209,-1.37131 -8.16899,-5.69028 -9.62547,-8.50684 l -1.15082,-2.22541 -30.15427,-0.29807 c -34.120544,-0.33675 -34.361357,-0.37165 -47.322608,-6.73163 -6.351258,-3.1166 -8.689236,-4.83842 -14.375189,-10.5868 -7.801953,-7.88768 -11.15242,-13.15178 -14.644139,-23.00837 -2.296775,-6.48346 -2.480484,-7.78808 -2.503471,-17.77826 -0.02075,-9.12645 0.262508,-11.69654 1.847184,-16.74295 8.187038,-26.07247 29.922154,-42.40718 56.427383,-42.40718 24.31607,0 45.63798,14.38452 54.53125,36.78869 2.47976,6.24717 4.14191,14.01779 4.15564,19.42801 0.0104,4.08655 -0.2726,4.93794 -2.32263,6.98791 -2.87132,2.87135 -5.5623,2.97861 -8.69036,0.34617 -2.11544,-1.78001 -2.42185,-2.63611 -2.92996,-8.18584 -2.19827,-24.01052 -21.08659,-41.73662 -44.47312,-41.73662 -13.173998,0 -23.308101,4.10985 -32.295594,13.09726 -8.950451,8.95045 -13.097334,19.12938 -13.097334,32.14855 0,19.77003 13.433802,37.34112 33.052955,43.2324 3.246895,0.97495 10.077823,1.29358 33.359403,1.55609 28.72956,0.32354 29.28594,0.29995 29.78381,-1.26849 1.5746,-4.96114 11.91619,-11.29962 18.43597,-11.29962 1.78394,0 2.76523,-0.38107 2.76523,-1.07408 0,-1.55477 2.65137,-3.71765 4.55717,-3.71765 2.14917,0 3.40133,1.60627 3.96634,5.08801 l 0.46002,2.83466 6.00605,0.2311 c 4.68428,0.18016 6.19938,0.53954 6.88451,1.6291 0.63887,1.01645 0.63887,1.77878 0,2.79514 -0.68744,1.09379 -2.20587,1.44837 -6.98385,1.63089 l -6.10537,0.23298 v 3.56012 3.56022 h 9.82304 c 10.11432,0 11.73974,0.46031 11.73974,3.32611 0,2.38596 -2.72443,3.06293 -12.32613,3.06293 h -9.23665 v 2.79514 2.79515 h 5.01333 c 5.39262,0 8.56323,1.4361 8.56323,3.87866 0,2.5599 -1.7537,3.30893 -7.74662,3.30893 h -5.82994 v 2.21815 c 0,5.46258 -5.29262,7.80779 -7.79205,3.45279 z m -77.05443,-44.31142 c -0.70103,-0.70084 -1.59738,-5.56973 -2.45073,-13.31154 -0.979987,-8.89101 -1.710752,-12.61008 -2.690509,-13.69265 -1.207516,-1.33432 -3.299991,-10.94212 -3.408693,-15.65131 -0.05659,-2.44294 3.366973,-5.75366 5.949352,-5.75366 1.26722,0 2.80737,0.8527 3.96785,2.19617 l 1.89668,2.19618 2.30147,-2.19618 c 2.77423,-2.64733 4.86102,-2.77156 7.79465,-0.46408 2.15888,1.69823 2.19165,1.85123 1.66731,7.78656 -0.65689,7.43538 -1.75784,11.79143 -3.18878,12.61649 -0.73706,0.42541 -1.51907,4.59185 -2.44054,13.00408 -1.45607,13.29286 -1.91584,14.37514 -6.10658,14.37514 -1.2024,0 -2.68357,-0.49709 -3.29148,-1.1053 z m -16.843784,-5.6218 c -0.257225,-0.67065 -0.893921,-4.37231 -1.415003,-8.22683 -0.52577,-3.88932 -1.493388,-7.64055 -2.174351,-8.4292 -0.674898,-0.78101 -1.647232,-4.09957 -2.160815,-7.37341 -1.083704,-6.90811 -0.423427,-9.09655 3.120755,-10.34288 1.998283,-0.70272 2.495841,-0.52444 4.262423,1.52949 1.770101,2.0579 2.086478,2.1708 2.751736,0.98202 1.36069,-2.43142 2.10505,-1.41243 2.665135,3.64822 0.303822,2.74525 1.247387,6.19662 2.096788,7.6696 1.253762,2.17411 1.391987,3.15094 0.734606,5.19101 -0.445405,1.38206 -1.263801,5.56765 -1.818707,9.30115 l -1.008933,6.78827 -3.292974,0.24053 c -2.376915,0.17356 -3.423078,-0.0981 -3.760631,-0.97805 z m 33.423774,0.13867 c -0.18346,-0.54898 -0.72866,-3.87329 -1.21158,-7.38725 -0.48295,-3.51391 -1.25759,-7.36266 -1.72143,-8.55277 -0.69745,-1.78935 -0.56001,-2.52395 0.79421,-4.24558 1.10595,-1.40601 1.8147,-3.87951 2.18321,-7.61932 0.55464,-5.62877 1.21193,-6.64834 2.66895,-4.13994 0.73621,1.26754 0.98724,1.18189 2.69665,-0.91967 1.53251,-1.88425 2.28203,-2.21778 4.00952,-1.78426 3.81134,0.95664 4.71796,3.45212 3.68135,10.13318 -0.49842,3.21254 -1.54719,6.76351 -2.33056,7.89098 -0.83694,1.20463 -1.81191,4.9983 -2.36422,9.19927 -0.517,3.93201 -1.11718,7.43592 -1.33381,7.78653 -0.64576,1.04474 -6.70592,0.73573 -7.07225,-0.36127 z M 2.8474135,210.71872 c -1.1371491,-1.35141 -2.0675464,-3.30045 -2.0675464,-4.33114 0,-1.03069 0.9304256,-2.97974 2.0675464,-4.33115 l 2.0675464,-2.45707 H 18.481969 32.048978 l 2.33443,2.33436 c 3.029166,3.02916 3.029166,5.87855 0,8.90771 l -2.33443,2.33446 H 18.481969 4.9149599 Z M 85.940768,193.1524 c -2.632838,-2.07101 -2.877773,-6.18209 -0.496717,-8.33694 2.094995,-1.89594 6.064094,-1.85831 7.997396,0.0755 1.507603,1.50826 1.499614,1.59202 -0.545389,5.72348 -2.303313,4.65316 -3.643903,5.14224 -6.955281,2.53754 z m 35.164752,1.12276 c -0.29279,-0.29241 -0.53247,-1.14275 -0.53247,-1.88886 0,-0.74613 -0.71612,-2.26683 -1.59134,-3.37949 -1.55602,-1.9782 -1.5583,-2.06385 -0.10291,-3.86121 3.35364,-4.14155 10.47907,-1.35225 10.47907,4.10211 0,3.54852 -6.04727,7.23258 -8.25242,5.02745 z m -17.85023,-8.258 c -3.980847,-1.60391 -4.800864,-8.39647 -1.3421,-11.11719 4.5553,-3.58313 10.99315,-0.57727 10.99315,5.13309 0,5.04783 -4.71651,7.97229 -9.65105,5.9841 z m -63.116118,-36.132 c -4.912193,-4.94152 -9.299833,-9.97283 -9.750321,-11.18077 -1.558595,-4.17908 1.849976,-8.58511 6.641555,-8.58511 1.935905,0 4.05633,1.68729 11.961354,9.51837 8.690953,8.60964 9.608314,9.78937 9.608314,12.35682 0,3.93497 -2.848646,6.87518 -6.661004,6.87518 -2.593203,0 -3.72624,-0.86308 -11.799898,-8.98449 z m 115.857398,7.09138 c -1.65699,-1.42525 -2.20082,-2.61592 -2.20082,-4.8187 0,-2.66111 0.82677,-3.75953 9.14423,-12.14846 5.02931,-5.07253 9.97,-9.55035 10.97932,-9.95056 2.59465,-1.02891 7.14549,1.01833 8.15274,3.66755 1.62139,4.26455 1.02816,5.27194 -9.0248,15.32486 -10.88535,10.88543 -12.65378,11.70738 -17.05067,7.92531 z m -54.3462,-22.39511 -2.240737,-1.92679 v -13.58086 c 0,-13.27375 0.0434,-13.62747 1.936107,-15.64293 2.39583,-2.5516 6.95412,-2.80259 9.75508,-0.53671 1.8284,1.47883 1.89299,1.93773 2.13772,15.18252 l 0.25233,13.65756 -2.38712,2.38719 c -2.9802,2.98011 -6.3331,3.1434 -9.45341,0.46031 z"
       id="path4618"
       inkscape:connector-curvature="0" />
  </g>
</svg>
