<?xml version="1.0" encoding="UTF-8" standalone="no"?>
<!-- Created with Inkscape (http://www.inkscape.org/) -->

<svg
   xmlns:dc="http://purl.org/dc/elements/1.1/"
   xmlns:cc="http://creativecommons.org/ns#"
   xmlns:rdf="http://www.w3.org/1999/02/22-rdf-syntax-ns#"
   xmlns:svg="http://www.w3.org/2000/svg"
   xmlns="http://www.w3.org/2000/svg"
   xmlns:sodipodi="http://sodipodi.sourceforge.net/DTD/sodipodi-0.dtd"
   xmlns:inkscape="http://www.inkscape.org/namespaces/inkscape"
   width="210mm"
   height="210mm"
   viewBox="0 0 210 210"
   version="1.1"
   id="svg8"
   inkscape:version="0.92.4 (5da689c313, 2019-01-14)"
   sodipodi:docname="OilGas.svg">
  <defs
     id="defs2" />
  <sodipodi:namedview
     id="base"
     pagecolor="#ffffff"
     bordercolor="#666666"
     borderopacity="1.0"
     inkscape:pageopacity="0.0"
     inkscape:pageshadow="2"
     inkscape:zoom="0.7"
     inkscape:cx="834.287"
     inkscape:cy="328.28096"
     inkscape:document-units="mm"
     inkscape:current-layer="layer1"
     showgrid="false"
     inkscape:window-width="1920"
     inkscape:window-height="1017"
     inkscape:window-x="1912"
     inkscape:window-y="-8"
     inkscape:window-maximized="1" />
  <metadata
     id="metadata5">
    <rdf:RDF>
      <cc:Work
         rdf:about="">
        <dc:format>image/svg+xml</dc:format>
        <dc:type
           rdf:resource="http://purl.org/dc/dcmitype/StillImage" />
        <dc:title></dc:title>
      </cc:Work>
    </rdf:RDF>
  </metadata>
  <g
     inkscape:label="Layer 1"
     inkscape:groupmode="layer"
     id="layer1"
     transform="translate(0,-87)">
    <path
       style="fill:#126992;stroke-width:0.79730928;fill-opacity:1"
       d="m 55.753974,271.39274 0.211883,-22.92268 10.564317,-0.22224 10.564411,-0.22224 v 23.1451 23.1451 H 66.318667 55.54275 Z m 75.557236,-0.19965 v -23.12193 h 10.76367 10.76368 v 23.12193 23.12194 H 142.07488 131.31121 Z M 28.458311,230.53032 V 218.57068 H 105 181.54169 v 11.95964 11.95964 H 105 28.458311 Z m 0.531121,-16.47774 c -0.291928,-0.29193 -0.531121,-7.2887 -0.531121,-15.54753 v -15.01594 h 10.365052 10.364958 v -6.77716 -6.77716 h 7.973124 7.973124 v -6.36007 c 0,-7.34059 0.39269,-7.81765 7.97303,-9.69569 6.575918,-1.62906 27.837051,-1.41859 33.486991,0.33148 7.41366,2.29644 6.81483,-0.37009 6.47977,28.85333 -0.29475,25.75409 -0.28534,25.93913 1.34475,25.93913 1.26989,0 1.69884,-0.58762 1.89207,-2.59129 l 0.24956,-2.59119 6.07512,-0.23072 6.07512,-0.23071 0.43318,-3.35689 c 0.23825,-1.8463 3.23494,-27.15657 6.65879,-56.24495 5.45745,-46.364794 6.40283,-52.983089 7.66556,-53.658856 0.84471,-0.452018 4.22505,-0.545246 8.17606,-0.224125 5.18644,0.420941 6.82604,0.842825 7.12814,1.83378 0.30134,0.98926 13.99805,109.987151 13.99805,111.397721 0,0.17421 1.97334,0.31641 4.38514,0.31641 h 4.38523 v 5.5812 5.58119 h -76.0102 c -41.805527,0 -76.249287,-0.23919 -76.541686,-0.53112 z M 161.60855,199.32161 c -2.41179,-2.21536 -5.91022,-5.29219 -7.77423,-6.83743 l -3.38901,-2.80948 -4.1854,3.58685 c -2.30199,1.97278 -5.79995,5.05121 -7.77329,6.84092 l -3.5879,3.25395 15.54753,-0.003 15.54754,-0.003 -4.38524,-4.02785 z m 4.06939,-12.18688 -1.16517,-9.9087 -5.05893,4.44145 c -2.78236,2.44278 -4.92379,4.57659 -4.75862,4.74167 0.22036,0.22036 11.95804,10.49962 12.1219,10.61573 0.0188,0.009 -0.49816,-4.44041 -1.13918,-9.89015 z m -23.74441,3.13343 4.64279,-3.98849 -4.60983,-4.15235 c -2.53544,-2.28382 -4.71737,-4.045 -4.84874,-3.91363 -0.13183,0.1309 -0.59233,3.25566 -1.02523,6.94299 -0.43224,3.68725 -0.9676,7.73459 -1.18899,8.99394 -0.46332,2.63874 -0.73642,2.78932 7.03,-3.88246 z m 14.71102,-12.92837 5.98001,-5.35208 -5.49117,-4.9916 c -3.02014,-2.74535 -5.91918,-5.0012 -6.44239,-5.01297 -0.52358,-0.009 -3.53082,2.20425 -6.68365,4.92455 l -5.73234,4.94601 5.88631,5.39164 c 3.23749,2.96542 6.02512,5.40406 6.19481,5.41903 0.16951,0.0188 2.99952,-2.381 6.28842,-5.32458 z m 5.48382,-18.53659 c -0.81457,-6.99263 -1.22487,-7.21016 -5.30367,-2.81118 l -1.99321,2.14972 3.96466,3.50465 c 2.18061,1.92748 3.98878,3.50455 4.01816,3.50455 0.0282,0 -0.27969,-2.85647 -0.68556,-6.34774 z m -18.55759,1.78095 2.90412,-2.57359 -2.99754,-2.74845 c -3.48581,-3.19615 -3.77548,-2.92804 -4.47629,4.14321 -0.55749,5.62583 -0.47274,5.64759 4.56971,1.17883 z m 11.16409,-9.53673 c 1.80722,-1.61766 3.39136,-3.19002 3.52037,-3.4942 0.12901,-0.30417 -1.57528,-1.88143 -3.78725,-3.50511 l -4.02174,-2.95224 -3.98651,2.92644 c -2.19266,1.60946 -3.96373,3.16487 -3.93576,3.45643 0.0753,0.82681 7.13219,6.5099 8.07945,6.5099 0.4652,0 2.32421,-1.32356 4.13144,-2.94122 z m -10.80558,-11.41458 c 1.95686,-1.63094 1.79404,-2.66964 -0.62059,-3.96203 -1.29465,-0.6931 -1.50371,-0.41059 -1.77068,2.38759 -0.34372,3.60362 -0.1761,3.71408 2.39164,1.57444 z m 15.61637,-1.39109 c -0.29758,-1.6444 -0.62153,-3.08851 -0.72041,-3.20914 -0.0989,-0.12054 -1.03258,0.47085 -2.07476,1.31509 l -1.8949,1.53441 1.98126,1.64827 c 2.8187,2.34494 3.32252,2.10537 2.7089,-1.28863 z m -5.87784,-5.93038 c 1.29777,-0.9595 2.35963,-2.02862 2.35963,-2.37573 0,-0.34749 -1.35313,-1.32149 -3.00705,-2.16526 -2.68093,-1.36764 -3.17806,-1.40672 -4.58449,-0.36067 -0.86731,0.64507 -2.11573,1.49608 -2.77351,1.89 -0.9886,0.59233 -0.78162,1.06149 1.19596,2.7073 2.95959,2.46359 3.83537,2.50267 6.80946,0.30417 z m -8.45574,-9.50132 c -0.69592,-1.12571 -1.94161,-0.83247 -1.94161,0.45767 0,0.71098 0.46803,0.99142 1.19135,0.71381 0.65543,-0.25144 0.99293,-0.77879 0.75054,-1.17092 z m 12.14741,-0.44448 c -0.23542,-0.23543 -0.84942,-0.16857 -1.36415,0.14973 -0.6931,0.42847 -0.65543,0.75148 0.14596,1.2503 1.06309,0.66013 2.09369,-0.52359 1.21781,-1.39975 z m -3.80269,-4.16836 1.91457,-1.47198 -2.20857,-2.89546 c -1.21471,-1.59261 -2.48215,-2.89555 -2.81655,-2.89555 -0.3343,0 -1.60183,1.30294 -2.81654,2.89555 l -2.20848,2.89546 1.91448,1.47198 c 1.05302,0.80986 2.45276,1.47197 3.11054,1.47197 0.65731,0 2.05753,-0.66201 3.11055,-1.47197 z m -6.93189,-12.99796 c -0.66766,-0.66767 -0.96251,-0.68933 -0.96251,-0.0753 0,0.49063 -0.23072,1.54873 -0.51135,2.352 -0.4878,1.39099 -0.44166,1.39438 0.96243,0.0753 1.15151,-1.08532 1.26357,-1.60034 0.51228,-2.3521 z m 8.6859,0.38327 c -0.7656,-1.31603 -0.83152,-1.29795 -0.85412,0.23543 -0.0282,1.84564 0.98483,3.28475 1.41086,2.00667 0.14973,-0.44919 -0.10076,-1.45841 -0.55749,-2.24238 z m -3.21949,-5.47262 c 0.85318,-1.028152 0.85506,-1.37291 0.009,-1.895555 -1.1211,-0.693094 -4.04631,-0.191166 -4.04631,0.694036 0,0.703452 1.75147,2.458409 2.45379,2.458409 0.29758,0 1.00951,-0.56502 1.5832,-1.2567 z"
       id="path4714"
       inkscape:connector-curvature="0" />
  </g>
</svg>
