<?xml version="1.0" encoding="UTF-8" standalone="no"?>
<!-- Created with Inkscape (http://www.inkscape.org/) -->

<svg
   xmlns:dc="http://purl.org/dc/elements/1.1/"
   xmlns:cc="http://creativecommons.org/ns#"
   xmlns:rdf="http://www.w3.org/1999/02/22-rdf-syntax-ns#"
   xmlns:svg="http://www.w3.org/2000/svg"
   xmlns="http://www.w3.org/2000/svg"
   xmlns:sodipodi="http://sodipodi.sourceforge.net/DTD/sodipodi-0.dtd"
   xmlns:inkscape="http://www.inkscape.org/namespaces/inkscape"
   width="210mm"
   height="210mm"
   viewBox="0 0 210 210"
   version="1.1"
   id="svg8"
   inkscape:version="0.92.4 (5da689c313, 2019-01-14)"
   sodipodi:docname="RenLowCarbonIcon.svg">
  <defs
     id="defs2" />
  <sodipodi:namedview
     id="base"
     pagecolor="#ffffff"
     bordercolor="#666666"
     borderopacity="1.0"
     inkscape:pageopacity="0.0"
     inkscape:pageshadow="2"
     inkscape:zoom="0.7"
     inkscape:cx="834.287"
     inkscape:cy="547.79983"
     inkscape:document-units="mm"
     inkscape:current-layer="layer1"
     showgrid="false"
     inkscape:window-width="1920"
     inkscape:window-height="1017"
     inkscape:window-x="1912"
     inkscape:window-y="-8"
     inkscape:window-maximized="1" />
  <metadata
     id="metadata5">
    <rdf:RDF>
      <cc:Work
         rdf:about="">
        <dc:format>image/svg+xml</dc:format>
        <dc:type
           rdf:resource="http://purl.org/dc/dcmitype/StillImage" />
        <dc:title></dc:title>
      </cc:Work>
    </rdf:RDF>
  </metadata>
  <g
     inkscape:label="Layer 1"
     inkscape:groupmode="layer"
     id="layer1"
     transform="translate(0,-87)">
    <path
       style="fill:#ffffff;stroke-width:0.755817;fill-opacity:1"
       d="M 94.783246,295.83763 C 57.073216,292.54975 22.256864,266.78008 7.8793495,231.51487 -6.0199462,197.42257 -1.0919896,158.63124 20.839617,129.49494 33.710258,112.39621 51.545188,99.448093 71.231929,92.910158 84.24933,88.58717 89.509905,87.768489 104.6089,87.715823 c 15.15746,-0.05363 21.55453,0.877521 33.69147,4.902783 16.21825,5.378313 30.06425,14.197274 42.50184,27.071034 14.35573,14.85903 22.88314,30.7045 27.37885,50.87436 1.93813,8.69569 2.32984,28.24691 0.75522,37.71379 -3.71905,22.36366 -13.22719,40.76287 -29.45641,57.00094 -22.75191,22.76433 -52.20673,33.3917 -84.696981,30.5589 z m 31.366434,-9.72298 c 18.98115,-4.38931 34.00106,-12.72318 47.68333,-26.45731 4.8985,-4.91698 9.78166,-10.75452 12.58793,-15.04801 C 215.74613,199.74316 202.99557,139.89879 157.894,110.71866 142.20859,100.57039 124.692,95.557182 104.89688,95.550834 89.04847,95.546061 75.935372,98.529585 62.283175,105.24723 34.381476,118.97647 14.258564,145.78397 9.4093433,175.68524 0.71572225,229.29241 36.111971,278.12858 90.248343,287.21847 c 8.50678,1.4283 27.473117,0.84538 35.901337,-1.10382 z M 95.91697,261.82757 c -1.063737,-1.06373 -1.511604,-2.51937 -1.511604,-4.91278 0,-3.27522 -0.08036,-3.40118 -2.26745,-3.40118 h -2.267451 v -6.42447 c 0,-6.2512 -0.04462,-6.42448 -1.787627,-6.42448 -0.983215,0 -2.670235,-0.69451 -3.749059,-1.54285 -1.782538,-1.40215 -1.981342,-2.10284 -2.180414,-7.68621 -0.145506,-4.07874 -0.536511,-6.24861 -1.16372,-6.45625 -0.732905,-0.24281 -0.94483,2.84029 -0.94483,13.76717 0,13.94134 -0.01785,14.09819 -1.855204,15.93519 -2.600783,2.60077 -6.567395,2.53838 -8.671393,-0.13663 -1.283163,-1.63132 -1.566416,-3.0665 -1.566416,-7.93608 0,-5.79316 -0.04462,-5.94464 -1.838689,-5.94464 -1.182822,0 -2.011961,0.54632 -2.324761,1.53177 -0.266917,0.84272 -1.225584,2.00777 -2.129441,2.58944 -2.281109,1.46824 -7.311814,2.33076 -7.311814,1.25364 0,-0.46154 -1.105427,-0.8454 -2.456435,-0.85164 -3.11096,-0.0179 -4.697998,-1.00421 -4.101943,-2.55757 0.319586,-0.8329 1.414745,-1.20997 3.511335,-1.20997 4.485267,0 3.712103,-1.3943 -0.920997,-1.66114 -2.921796,-0.16783 -3.968039,-0.52759 -3.968039,-1.36216 0,-0.83467 1.046243,-1.19389 3.968039,-1.36218 4.761915,-0.27404 5.266558,-1.48017 0.756115,-1.80654 -2.630957,-0.19014 -3.212282,-0.50615 -3.212282,-1.74406 0,-1.23809 0.581146,-1.55365 3.212282,-1.74406 1.766648,-0.12761 3.212193,-0.59811 3.212193,-1.04429 0,-0.51775 1.163809,-0.65879 3.212191,-0.38832 2.452151,0.32315 3.767719,1.06232 5.559808,3.12276 1.367613,1.57247 3.044724,2.69916 4.017673,2.69916 4.307979,0 6.105782,3.26012 6.105782,11.0721 0,2.69622 0.331191,4.80005 0.756114,4.80005 0.476702,0 0.756115,-5.18407 0.756115,-14.0407 v -14.0408 l 2.297714,-2.29772 c 1.922958,-1.92294 2.693356,-2.2213 4.723796,-1.82912 4.003391,0.77307 5.071502,2.79887 5.071502,9.61757 0,7.06845 0.543653,7.36876 5.243971,2.89724 2.388949,-2.27246 3.898409,-4.76549 5.834848,-9.63668 1.436796,-3.61407 3.310751,-7.1663 4.164441,-7.89375 1.36993,-1.16739 3.39439,-1.3227 17.23869,-1.3227 18.90314,0 18.27637,-0.27586 21.96339,9.67343 1.9218,5.18612 2.96045,6.96196 4.63327,7.92206 3.05633,1.75407 3.65426,4.01518 3.65426,13.82012 v 8.64274 h -2.26745 c -2.14578,0 -2.26744,0.16426 -2.26744,3.05758 0,2.23861 -0.49724,3.55453 -1.85522,4.91285 -3.73379,3.73381 -7.97044,1.30506 -7.97044,-4.56925 v -3.40118 h -15.39599 -15.3959 l -0.40172,3.56025 c -0.63024,5.58811 -4.819139,8.04383 -8.109263,4.7537 z m 5.89538,-19.80244 c 2.6056,-2.60552 -0.17586,-7.36895 -3.657299,-6.26396 -3.843239,1.21987 -3.332526,7.17095 0.615071,7.17095 1.174254,0 2.543208,-0.40798 3.042048,-0.90699 z m 41.18931,-0.67666 c 2.22951,-3.56339 -2.44384,-7.61998 -5.54516,-4.81333 -1.67274,1.51382 -1.84601,2.79145 -0.67488,4.9791 0.9742,1.8204 5.04543,1.71192 6.22031,-0.16604 z m -4.81654,-11.83217 c -0.0357,-0.31154 -0.97099,-2.77763 -2.08731,-5.47964 l -2.02963,-4.91287 h -14.6198 -14.61979 l -1.81048,4.81592 c -0.99571,2.64873 -1.81039,5.11453 -1.81039,5.47963 0,0.36513 8.33289,0.66418 18.51749,0.66418 10.18469,0 18.4916,-0.25531 18.45991,-0.56686 z M 30.916741,194.15129 c 0,-0.22495 0.744509,-1.4151 1.653722,-2.64541 l 1.65381,-2.23682 h 9.612743 9.612742 l -0.811462,2.64531 -0.812354,2.64543 H 41.371385 c -5.750041,0 -10.454644,-0.1839 -10.454644,-0.40886 z m 24.186113,-0.29815 c 0,-0.38832 0.332084,-1.57901 0.737367,-2.64533 0.726656,-1.91207 0.847171,-1.93875 8.710584,-1.93875 7.86359,0 7.983659,0.0268 8.710671,1.93875 0.405286,1.06632 0.737368,2.25673 0.737368,2.64533 0,0.40082 -4.091767,0.70701 -9.447771,0.70701 -5.356005,0 -9.447683,-0.30619 -9.447683,-0.70701 z m 21.36046,-1.93877 -0.812356,-2.64531 h 9.612743 9.612741 l 1.653722,2.23682 c 0.90957,1.23031 1.653813,2.42073 1.653813,2.64541 0,0.22497 -4.704604,0.40886 -10.454647,0.40886 H 77.274775 Z m 64.321256,-5.10176 c 0.24994,-4.26084 0.67131,-11.74343 0.9367,-16.62792 l 0.48205,-8.88089 h 2.3171 c 1.29788,0 3.04463,-0.68382 3.97124,-1.55403 l 1.65426,-1.55408 3.12453,3.63256 c 1.71844,1.99795 5.33245,7.97794 8.03115,13.28896 4.58231,9.0182 5.93957,13.39599 4.15301,13.39599 -1.41831,0 -6.99054,-5.63391 -11.94465,-12.07685 -2.72371,-3.54232 -5.26289,-6.78076 -5.64248,-7.19648 -0.41688,-0.45707 -0.4758,4.40545 -0.14818,12.28208 l 0.54186,13.03785 h -3.96598 -3.96589 z M 37.630716,184.92314 c 2.275843,-4.1773 3.557578,-4.7239 11.077123,-4.7239 7.709779,0 7.923492,0.13649 6.413761,4.10784 -0.732903,1.9267 -0.790929,1.93866 -9.474285,1.93866 -8.091852,0 -8.683979,-0.0972 -8.016599,-1.3226 z m 20.800024,-1.51171 0.981253,-2.8343 h 5.138632 5.138545 l 0.981252,2.8343 0.981254,2.83431 h -7.101051 -7.101138 z m 15.526416,0.75612 c -0.417783,-1.14318 -0.908856,-2.50366 -1.091323,-3.0233 -0.250849,-0.71416 1.49625,-0.94474 7.173269,-0.94474 6.804139,0 7.654699,0.15895 9.107831,1.70059 4.000891,4.24487 3.868416,4.34592 -5.692997,4.34592 h -8.737273 z m -10.422867,-6.16291 c -0.628457,-0.38832 -0.88377,-1.88886 -0.730226,-4.30272 0.198179,-3.12372 0.472237,-3.70594 1.746742,-3.70594 1.259239,0 1.549276,0.57937 1.73701,3.46742 0.236565,3.64416 -0.973754,5.64104 -2.753257,4.54124 z m -12.966338,-7.19799 c 0,-1.88913 3.107749,-4.96769 5.014727,-4.96769 1.659436,0 1.191306,3.36583 -0.717728,5.159 -2.374486,2.23074 -4.297176,2.14514 -4.297176,-0.19105 z m 23.56212,0.0892 c -1.831012,-1.94904 -2.206748,-5.05314 -0.611497,-5.05314 1.906978,0 5.014725,3.07857 5.014725,4.96769 0,2.39735 -2.191304,2.43983 -4.403139,0.0893 z M 61.61749,168.08421 c -4.688802,-1.40396 -7.875643,-6.71461 -6.959557,-11.59774 0.26067,-1.39093 1.622299,-3.58144 3.140153,-5.0525 2.377967,-2.30496 3.136849,-2.59712 6.744862,-2.59712 3.445543,0 4.410282,0.33029 6.327528,2.16729 1.244241,1.19202 2.665951,3.14201 3.159344,4.33341 1.968756,4.75281 -1.466611,11.29458 -6.693532,12.74628 -3.143633,0.87307 -2.803783,0.87307 -5.718798,3.8e-4 z m 6.610246,-5.31959 c 4.178893,-3.28709 1.738796,-9.77076 -3.677111,-9.77076 -5.169788,0 -7.598281,5.78469 -4.025261,9.58792 2.044546,2.1764 5.076503,2.24837 7.702372,0.18301 z M 116.702,160.81194 c -15.18228,-1.21445 -14.09033,-4.80888 2.26745,-7.46377 7.2105,-1.17032 17.55507,-1.45964 19.01061,-0.53205 0.47938,0.3053 0.9892,1.91573 1.13373,3.57856 0.26157,3.01026 0.24817,3.02705 -3.13846,3.90726 -3.17398,0.82483 -12.31172,1.06649 -19.27333,0.50972 z m -71.949166,-1.50296 c -0.291912,-0.76147 0.06249,-1.64025 0.923941,-2.26744 2.946883,-2.15472 8.538917,-0.50795 7.496871,2.20773 -0.700768,1.82706 -7.723526,1.87689 -8.420812,0.0626 z m 31.174772,-0.0626 c -1.042134,-2.71568 4.549899,-4.36245 7.496781,-2.20773 0.857884,0.62757 1.216033,1.50642 0.923942,2.26745 -0.697197,1.81718 -7.719688,1.76735 -8.420723,-0.0626 z m 65.376324,-0.54098 c -1.44439,-1.7404 -0.65434,-5.18299 1.42582,-6.21477 2.13488,-1.05874 4.10275,-0.29728 5.37501,2.08007 1.89208,3.53545 -4.21611,7.24906 -6.80083,4.1347 z m 5.37984,-7.87073 c -2.23808,-1.06016 -2.46902,-1.44794 -2.07542,-3.48625 0.94232,-4.88083 9.95553,-19.66675 14.75109,-24.19888 1.8369,-1.73602 2.5283,-2.02258 3.00778,-1.24666 1.91644,3.1008 -8.96197,29.39377 -12.4093,29.99321 -0.41599,0.0714 -1.88904,-0.40529 -3.27415,-1.06142 z m -93.784361,-1.30689 c -2.606854,-2.19352 -3.128099,-4.85064 -0.951525,-4.85064 1.67586,0 4.666664,3.02999 4.666664,4.72791 0,2.11524 -1.296286,2.15809 -3.715139,0.12318 z m 20.070601,1.42725 c -0.990001,-0.9899 -0.429387,-3.04168 1.265935,-4.63452 2.142472,-2.01268 4.297265,-2.14488 4.297265,-0.26334 0,1.96759 -4.516869,5.94437 -5.5632,4.89805 z m -9.478838,-3.96454 c -0.580252,-0.35888 -0.835565,-1.94386 -0.687376,-4.27602 0.198178,-3.12373 0.472237,-3.70594 1.746651,-3.70594 1.285752,0 1.545349,0.57934 1.736832,3.87322 0.230317,3.95412 -0.740047,5.3794 -2.796195,4.10874 z"
       id="path4594"
       inkscape:connector-curvature="0" />
  </g>
</svg>
