<?xml version="1.0" encoding="UTF-8" standalone="no"?>
<!-- Created with Inkscape (http://www.inkscape.org/) -->

<svg
   xmlns:dc="http://purl.org/dc/elements/1.1/"
   xmlns:cc="http://creativecommons.org/ns#"
   xmlns:rdf="http://www.w3.org/1999/02/22-rdf-syntax-ns#"
   xmlns:svg="http://www.w3.org/2000/svg"
   xmlns="http://www.w3.org/2000/svg"
   xmlns:sodipodi="http://sodipodi.sourceforge.net/DTD/sodipodi-0.dtd"
   xmlns:inkscape="http://www.inkscape.org/namespaces/inkscape"
   width="210mm"
   height="210mm"
   viewBox="0 0 210 210"
   version="1.1"
   id="svg8"
   inkscape:version="0.92.4 (5da689c313, 2019-01-14)"
   sodipodi:docname="SystemIcon.svg">
  <defs
     id="defs2" />
  <sodipodi:namedview
     id="base"
     pagecolor="#ffffff"
     bordercolor="#666666"
     borderopacity="1.0"
     inkscape:pageopacity="0.0"
     inkscape:pageshadow="2"
     inkscape:zoom="0.7"
     inkscape:cx="834.287"
     inkscape:cy="328.28096"
     inkscape:document-units="mm"
     inkscape:current-layer="layer1"
     showgrid="false"
     inkscape:window-width="1920"
     inkscape:window-height="1017"
     inkscape:window-x="1912"
     inkscape:window-y="-8"
     inkscape:window-maximized="1" />
  <metadata
     id="metadata5">
    <rdf:RDF>
      <cc:Work
         rdf:about="">
        <dc:format>image/svg+xml</dc:format>
        <dc:type
           rdf:resource="http://purl.org/dc/dcmitype/StillImage" />
        <dc:title></dc:title>
      </cc:Work>
    </rdf:RDF>
  </metadata>
  <g
     inkscape:label="Layer 1"
     inkscape:groupmode="layer"
     id="layer1"
     transform="translate(0,-87)">
    <path
       style="fill:#ffffff;stroke-width:0.80794716;fill-opacity:1"
       d="m 59.260393,284.41836 c -7.355692,-2.24558 -14.256388,-8.59671 -16.502258,-15.18813 -2.117426,-6.21429 -1.685238,-13.52074 1.13577,-19.20198 1.323952,-2.66623 2.83704,-5.43647 3.36246,-6.15598 0.791088,-1.08405 -0.362622,-3.5745 -6.73494,-14.52759 l -7.690162,-13.2192 -5.999294,0.25002 C 15.987473,216.82782 7.9237146,212.25087 3.4088807,203.07987 -1.3791606,193.35397 0.2978705,182.3085 7.712535,174.73371 c 5.064589,-5.17385 10.119252,-7.10968 18.440186,-7.06225 l 6.885809,0.0382 7.455222,-12.99857 c 4.100491,-7.14918 7.455316,-13.28437 7.455316,-13.63372 0,-0.34927 -0.901783,-1.8175 -2.003963,-3.26255 -2.967107,-3.89008 -4.459582,-8.9142 -4.459582,-15.01217 0,-9.51367 5.678373,-18.16622 14.502015,-22.09761 5.097702,-2.271353 14.402295,-2.259138 19.530629,0.0286 5.289891,2.35666 10.015809,6.92798 12.423142,12.01681 l 2.068376,4.37208 h 16.007375 16.00737 l 0.93328,-3.11521 c 1.34475,-4.48831 6.69514,-10.15523 12.07168,-12.78577 6.12373,-2.996017 14.59887,-3.125511 20.96403,-0.32063 4.97346,2.19195 10.18501,7.52994 12.54291,12.84751 3.49548,7.88283 1.78066,18.60833 -4.03398,25.23095 l -2.44818,2.78827 7.48805,12.8977 7.48815,12.8977 7.16464,0.0382 c 6.1932,0.0382 7.73606,0.34068 11.37927,2.24969 5.34543,2.80164 9.16976,6.62177 11.62786,11.61507 2.90097,5.89289 2.76174,15.16342 -0.32159,21.44289 -2.44722,4.98357 -5.9637,8.51541 -11.30131,11.35083 -2.78312,1.47854 -4.80188,1.82818 -10.9633,1.89928 l -7.55208,0.0859 -7.44377,12.92118 -7.44367,12.92108 2.6417,3.05604 c 5.49506,6.35695 6.99726,17.21242 3.50512,25.33 -2.2807,5.30182 -8.98444,11.60868 -14.24408,13.40079 -4.86514,1.65776 -11.87119,1.65776 -16.73634,0 -5.17347,-1.76282 -11.96538,-8.10364 -14.17031,-13.22921 l -1.74488,-4.05593 H 105.71761 90.007586 l -1.74488,4.05593 c -2.361814,5.49029 -9.170327,11.66946 -14.651358,13.29716 -4.358621,1.29437 -10.950516,1.51213 -14.350669,0.47427 z M 71.620076,274.387 c 3.453211,-1.44285 7.543777,-6.19807 8.598339,-9.99558 1.043684,-3.75848 1.044065,-3.96012 0.0095,-7.67251 -2.350077,-8.46197 -11.977976,-13.22568 -19.975985,-9.88393 -6.101878,2.54952 -9.305357,7.26475 -9.305357,13.69662 0,6.05483 3.817932,11.93417 9.118225,14.04148 2.929317,1.16459 8.535262,1.07432 11.5518,-0.18608 z m 79.974174,-7.6e-4 c 9.12328,-3.83387 11.99859,-15.66966 5.64182,-23.22413 -8.49995,-10.10179 -24.82567,-5.20143 -25.9018,7.77471 -0.19849,2.3914 -0.12978,5.26718 0.15173,6.39045 0.69662,2.77435 5.16755,7.72614 8.14964,9.02557 3.1884,1.38922 8.69511,1.40458 11.95823,0.0286 z M 122.54508,252.5562 c 3.48804,-11.06531 17.43696,-18.99404 28.19185,-16.02445 l 2.99812,0.82735 7.62423,-13.0564 7.62412,-13.05639 -2.25789,-2.42384 c -8.1089,-8.70493 -8.57134,-22.5256 -1.08195,-32.33424 2.16113,-2.83036 2.70001,-4.12893 2.17525,-5.24227 -0.38361,-0.81399 -3.60608,-6.55478 -7.16111,-12.75723 l -6.46355,-11.27726 -6.13556,0.41224 c -8.06157,0.54203 -13.02634,-1.08691 -18.60594,-6.1035 -4.00927,-3.60465 -7.95517,-10.18261 -7.97244,-13.29057 -0.007,-1.298 -1.29981,-1.41394 -15.76289,-1.41394 -14.463078,0 -15.755634,0.11547 -15.762887,1.41394 -0.01909,3.07904 -3.960977,9.68391 -7.893612,13.21967 -5.258496,4.72783 -11.261702,6.75317 -18.244465,6.15503 -2.727967,-0.2338 -5.505365,-0.64318 -6.171921,-0.90942 -0.90083,-0.35976 -3.078565,2.75956 -8.483446,12.15251 -3.999338,6.95042 -7.40245,12.97767 -7.562481,13.39402 -0.160317,0.41606 0.625046,1.72751 1.745548,2.91386 8.28677,8.77707 8.589464,23.59648 0.666079,32.62032 -1.388651,1.5817 -2.524899,3.12571 -2.524899,3.43117 0,0.30537 3.363033,6.34932 7.473544,13.43076 7.470489,12.87031 7.474402,12.87527 9.897289,12.26511 1.333113,-0.3359 4.798157,-0.60119 7.700087,-0.58974 9.952159,0.0382 19.388537,6.90156 22.333028,16.2427 l 1.367943,4.33963 h 15.459903 15.45991 z M 96.156602,220.8075 c -0.295823,-0.29582 -0.538207,-5.55221 -0.538207,-11.67986 v -11.14118 l -5.857678,-0.23761 c -5.573786,-0.22616 -5.857585,-0.33113 -5.857585,-2.17105 0,-1.9908 23.197398,-33.48528 25.321218,-34.378 2.36602,-0.99444 2.77855,0.54012 2.2452,8.35185 -0.29105,4.26864 -0.75196,9.4881 -1.02307,11.59894 l -0.49335,3.83769 h 5.69364 c 6.25332,0 8.24965,0.47427 8.24965,1.96016 0,1.06105 -23.80174,32.80278 -25.329432,33.77919 -1.164589,0.74433 -1.726939,0.76246 -2.4101,0.0763 z m -64.94645,-15.11685 c 5.439043,-2.32717 8.659508,-7.52154 8.659508,-13.96705 0,-9.33045 -7.861262,-15.87893 -17.353369,-14.45545 -7.372391,1.10552 -13.3883852,9.36634 -12.206047,16.76049 1.564333,9.78258 11.862415,15.5289 20.899908,11.66201 z M 191.71951,205.2097 c 13.14629,-6.70669 9.3566,-26.27454 -5.42768,-28.02552 -8.3467,-0.98853 -15.44398,5.05733 -16.16665,13.77152 -0.73097,8.81372 5.73659,15.83103 14.60117,15.84238 2.2662,0.003 5.16421,-0.65558 6.99316,-1.58838 z M 71.125001,137.26818 c 5.502407,-2.07897 9.372824,-7.89628 9.372824,-14.08767 0,-10.91654 -10.922555,-17.9454 -20.86689,-13.42837 -5.008096,2.27488 -9.24896,8.4322 -9.24896,13.42837 0,4.73689 4.780121,11.86595 9.267377,13.82115 2.981039,1.29885 8.409585,1.42501 11.475649,0.26624 z m 80.481839,-0.23188 c 3.45321,-1.44286 7.54378,-6.19817 8.59834,-9.99568 1.04369,-3.75838 1.04407,-3.96002 0.01,-7.67241 -2.35008,-8.46198 -11.97798,-13.22578 -19.97599,-9.88394 -6.10197,2.54953 -9.30536,7.26466 -9.30536,13.69653 0,6.05493 3.81794,11.93427 9.11823,14.04158 2.92932,1.16459 8.53526,1.07431 11.5518,-0.18608 z"
       id="path4690"
       inkscape:connector-curvature="0" />
  </g>
</svg>
