<?xml version="1.0" encoding="UTF-8" standalone="no"?>
<!-- Created with Inkscape (http://www.inkscape.org/) -->

<svg
   xmlns:dc="http://purl.org/dc/elements/1.1/"
   xmlns:cc="http://creativecommons.org/ns#"
   xmlns:rdf="http://www.w3.org/1999/02/22-rdf-syntax-ns#"
   xmlns:svg="http://www.w3.org/2000/svg"
   xmlns="http://www.w3.org/2000/svg"
   xmlns:sodipodi="http://sodipodi.sourceforge.net/DTD/sodipodi-0.dtd"
   xmlns:inkscape="http://www.inkscape.org/namespaces/inkscape"
   width="210mm"
   height="210mm"
   viewBox="0 0 210 210"
   version="1.1"
   id="svg8"
   inkscape:version="0.92.4 (5da689c313, 2019-01-14)"
   sodipodi:docname="TargetTracker.svg">
  <defs
     id="defs2" />
  <sodipodi:namedview
     id="base"
     pagecolor="#ffffff"
     bordercolor="#666666"
     borderopacity="1.0"
     inkscape:pageopacity="0.0"
     inkscape:pageshadow="2"
     inkscape:zoom="0.7"
     inkscape:cx="370.00128"
     inkscape:cy="323.18359"
     inkscape:document-units="mm"
     inkscape:current-layer="layer1"
     showgrid="false"
     inkscape:window-width="1920"
     inkscape:window-height="1017"
     inkscape:window-x="-8"
     inkscape:window-y="-8"
     inkscape:window-maximized="1" />
  <metadata
     id="metadata5">
    <rdf:RDF>
      <cc:Work
         rdf:about="">
        <dc:format>image/svg+xml</dc:format>
        <dc:type
           rdf:resource="http://purl.org/dc/dcmitype/StillImage" />
        <dc:title></dc:title>
      </cc:Work>
    </rdf:RDF>
  </metadata>
  <g
     inkscape:label="Layer 1"
     inkscape:groupmode="layer"
     id="layer1"
     transform="translate(0,-87)">
    <path
       style="fill:#000000;stroke-width:0.32449266"
       d="m 4.0480473,282.31648 c -1.0326071,-0.47792 -1.7636831,-1.11709 -2.3097962,-2.02036 l -0.79895516,-1.32153 v -87.0039 -87.00387 l 0.79895516,-1.32153 c 2.4528765,-4.05721 9.2130289,-3.32014 10.6354269,1.15963 0.242454,0.76367 0.359247,28.0903 0.360608,84.51031 l 0.0026,83.38171 95.326694,0.002 c 68.47994,0.001 95.71539,0.0962 96.70673,0.33694 2.89062,0.70196 4.74637,3.30856 4.19281,5.8894 -0.27934,1.30391 -2.042,3.12527 -3.56124,3.6805 -0.93344,0.34112 -17.81554,0.40981 -100.48189,0.40981 H 5.5598795 Z M 34.767696,240.26362 c -2.101282,-1.14153 -2.733869,-2.03645 -2.877029,-4.07019 -0.112074,-1.59143 -0.0053,-2.05335 0.678898,-2.94915 1.185666,-1.55177 63.446373,-42.38476 65.288192,-42.8186 2.637763,-0.62123 3.392183,-0.21686 15.083653,8.08798 l 10.86367,7.71675 2.32073,-1.62101 c 1.27637,-0.89156 11.29819,-7.67439 22.27074,-15.07296 10.97255,-7.39857 20.36078,-13.74707 20.86263,-14.10785 l 0.91247,-0.65589 -5.31365,-5.58323 c -2.92251,-3.07079 -5.28482,-5.60802 -5.24951,-5.63844 0.0341,-0.0298 9.66626,-1.5048 21.40212,-3.27653 11.73585,-1.77172 21.78581,-3.30013 22.33316,-3.39654 0.59625,-0.1052 0.94403,-0.0538 0.8674,0.12784 -0.0703,0.16668 -3.56275,8.50903 -7.76094,18.53827 -4.19819,10.02931 -7.73845,18.23784 -7.86727,18.24125 -0.12912,0.003 -2.62383,-2.50612 -5.5445,-5.57655 -4.49098,-4.72129 -5.39513,-5.52905 -5.86003,-5.23507 -0.30257,0.19117 -11.80941,7.96103 -25.57136,17.26634 -13.76186,9.30537 -25.43277,17.05551 -25.93524,17.22261 -1.35075,0.44925 -3.18607,0.36979 -4.42775,-0.19177 -0.60307,-0.27242 -5.55228,-3.66527 -10.99863,-7.53908 -5.44643,-3.87382 -10.22706,-7.21965 -10.62368,-7.43519 -0.664545,-0.36143 -3.005888,1.10717 -29.943968,18.78171 -16.072556,10.54556 -29.614841,19.30405 -30.09396,19.46338 -1.402718,0.46658 -3.688473,0.33455 -4.816014,-0.2778 z"
       id="path826"
       inkscape:connector-curvature="0" />
  </g>
</svg>
