<?xml version="1.0" encoding="UTF-8" standalone="no"?>
<!-- Created with Inkscape (http://www.inkscape.org/) -->

<svg
   xmlns:dc="http://purl.org/dc/elements/1.1/"
   xmlns:cc="http://creativecommons.org/ns#"
   xmlns:rdf="http://www.w3.org/1999/02/22-rdf-syntax-ns#"
   xmlns:svg="http://www.w3.org/2000/svg"
   xmlns="http://www.w3.org/2000/svg"
   xmlns:sodipodi="http://sodipodi.sourceforge.net/DTD/sodipodi-0.dtd"
   xmlns:inkscape="http://www.inkscape.org/namespaces/inkscape"
   width="210mm"
   height="210mm"
   viewBox="0 0 210 210"
   version="1.1"
   id="svg8"
   inkscape:version="0.92.4 (5da689c313, 2019-01-14)"
   sodipodi:docname="WholeSystemIcon.svg">
  <defs
     id="defs2" />
  <sodipodi:namedview
     id="base"
     pagecolor="#ffffff"
     bordercolor="#666666"
     borderopacity="1.0"
     inkscape:pageopacity="0.0"
     inkscape:pageshadow="2"
     inkscape:zoom="0.7"
     inkscape:cx="834.287"
     inkscape:cy="547.79983"
     inkscape:document-units="mm"
     inkscape:current-layer="layer1"
     showgrid="false"
     inkscape:window-width="1920"
     inkscape:window-height="1017"
     inkscape:window-x="1912"
     inkscape:window-y="-8"
     inkscape:window-maximized="1" />
  <metadata
     id="metadata5">
    <rdf:RDF>
      <cc:Work
         rdf:about="">
        <dc:format>image/svg+xml</dc:format>
        <dc:type
           rdf:resource="http://purl.org/dc/dcmitype/StillImage" />
        <dc:title></dc:title>
      </cc:Work>
    </rdf:RDF>
  </metadata>
  <g
     inkscape:label="Layer 1"
     inkscape:groupmode="layer"
     id="layer1"
     transform="translate(0,-87)">
    <g
       id="g4581"
       transform="matrix(6.4119416,0,0,6.4119416,-860.78908,-281.23373)"
       style="fill:#ffffff">
      <path
         id="path29-0"
         d="m 149.10984,88.074008 c -1.29012,-0.963501 -2.33566,-1.787019 -2.32343,-1.83004 0.0122,-0.043 1.1059,-0.830681 2.43035,-1.750373 l 2.40809,-1.672139 0.0423,0.81903 c 0.0408,0.78957 0.0497,0.820081 0.24848,0.84814 0.57078,0.0806 2.13452,-0.4068 3.39219,-1.05727 2.58239,-1.33563 4.68196,-3.72326 5.63291,-6.40573 0.12879,-0.36331 0.261,-0.63001 0.29378,-0.59267 0.0328,0.0373 0.39131,0.55316 0.79671,1.14626 0.82916,1.21305 0.94117,1.34471 1.09414,1.28601 0.0594,-0.0228 0.46611,-0.52175 0.90381,-1.1088 0.43771,-0.58706 0.80895,-1.02801 0.82499,-0.9799 0.016,0.0481 -0.12452,0.55982 -0.31235,1.13714 -0.85781,2.6367 -2.25455,4.76522 -4.39575,6.69878 -1.94325,1.754802 -4.67945,3.110733 -7.20891,3.572383 -1.45071,0.264769 -1.30853,0.169738 -1.33763,0.89404 -0.0139,0.34638 -0.052,0.656149 -0.0847,0.68838 -0.0327,0.0322 -1.11492,-0.729742 -2.40505,-1.693241 z"
         style="opacity:0.8;fill:#ffffff;fill-opacity:1;stroke-width:0.08466666"
         inkscape:connector-curvature="0" />
      <path
         id="path27-7"
         d="m 147.81485,88.270959 c -5.04806,-1.30416 -9.20528,-5.009633 -10.96019,-9.769203 -0.28374,-0.76955 -0.63549,-2.10233 -0.72918,-2.7629 -0.11722,-0.82646 -0.0883,-0.80434 -1.05188,-0.80434 h -0.84978 l 2.04086,-2.71842 c 1.12247,-1.49514 2.07013,-2.68576 2.1059,-2.64584 0.10813,0.12067 3.72927,5.37343 3.72927,5.40961 0,0.0185 -0.40957,0.0444 -0.91016,0.0576 l -0.91017,0.024 0.0206,0.268561 c 0.0113,0.14771 0.15155,0.668359 0.31162,1.156999 1.21003,3.6939 3.67013,6.191341 7.43344,7.546281 l 0.65365,0.23534 -1.33098,0.924282 c -0.73205,0.508338 -1.33099,0.97763 -1.33099,1.04285 0,0.0652 0.59055,0.56112 1.31233,1.102 0.72179,0.54088 1.34853,1.01941 1.39277,1.063389 0.11873,0.11805 -0.0669,0.092 -0.9271,-0.130259 z"
         style="opacity:0.6;fill:#ffffff;fill-opacity:1;stroke-width:0.08466666"
         inkscape:connector-curvature="0" />
      <path
         id="path25-8"
         d="m 162.94982,78.130686 c -0.22521,-0.28566 -3.7473,-5.3939 -3.7473,-5.43487 0,-0.026 0.44239,-0.0473 0.98309,-0.0473 h 0.98309 l -0.0543,-0.28924 c -0.10182,-0.54272 -0.57277,-1.86839 -0.94698,-2.66564 -0.76206,-1.62352 -1.92276,-3.06165 -3.32628,-4.12132 -0.79148,-0.59757 -2.56926,-1.51412 -3.52299,-1.8163 -0.32597,-0.10329 -0.61954,-0.21185 -0.65239,-0.24126 -0.0328,-0.0294 0.56675,-0.48631 1.33244,-1.01533 0.76568,-0.52902 1.37001,-0.99767 1.34296,-1.04145 -0.0271,-0.0438 -0.68033,-0.55372 -1.45171,-1.1332 -1.57429,-1.18263 -1.57473,-1.19981 -0.021,-0.80694 1.86531,0.47164 3.52642,1.2589 5.24934,2.48787 0.96258,0.68661 2.87103,2.61635 3.55663,3.5963 1.36773,1.95495 2.26892,4.08667 2.66574,6.30568 l 0.14762,0.8255 0.5615,0.01 c 0.30883,0.006 0.59715,0.003 0.64072,-0.005 0.0436,-0.008 0.16731,0.007 0.275,0.0339 0.18048,0.0453 0.0368,0.26094 -1.83706,2.7569 -1.11807,1.48927 -2.04678,2.70776 -2.0638,2.70776 -0.017,0 -0.0685,-0.0476 -0.11439,-0.10583 z"
         style="fill:#ffffff;fill-opacity:1;stroke-width:0.08466666"
         inkscape:connector-curvature="0" />
      <path
         id="path21-2"
         d="m 139.35831,70.207936 c -0.85034,-1.23821 -1.00617,-1.41791 -1.1516,-1.32803 -0.0498,0.0308 -0.43365,0.51032 -0.85298,1.06563 -0.41934,0.55531 -0.77825,1.00965 -0.79759,1.00965 -0.054,0 0.19326,-0.80065 0.52294,-1.69333 0.87623,-2.37265 2.42924,-4.60758 4.33894,-6.24414 0.84352,-0.72288 2.4386,-1.77549 3.41514,-2.2537 1.26078,-0.61739 3.58523,-1.31739 4.39048,-1.32217 0.43283,-0.003 0.5752,-0.22754 0.60043,-0.94881 l 0.0228,-0.65115 2.37067,1.77817 c 1.30386,0.978 2.37066,1.81222 2.37066,1.85382 0,0.0919 -4.73748,3.38531 -4.86971,3.38531 -0.0649,0 -0.0758,-0.18022 -0.0356,-0.58763 0.075,-0.76108 0.0113,-1.02104 -0.25007,-1.02104 -0.10956,0 -0.56601,0.093 -1.01434,0.20678 -3.54686,0.89974 -6.72125,3.87358 -7.98092,7.47672 -0.0855,0.24448 -0.18237,0.4445 -0.21534,0.4445 -0.033,0 -0.4217,-0.52676 -0.86385,-1.17058 z"
         style="opacity:0.4;fill:#ffffff;fill-opacity:1;stroke-width:0.08466666"
         inkscape:connector-curvature="0" />
    </g>
  </g>
</svg>
